<?xml version="1.0" encoding="utf-8"?>
<!-- Generator: Adobe Illustrator 14.0.0, SVG Export Plug-In . SVG Version: 6.00 Build 43363)  -->
<!DOCTYPE svg PUBLIC "-//W3C//DTD SVG 1.1//EN" "http://www.w3.org/Graphics/SVG/1.1/DTD/svg11.dtd">
<svg version="1.1" id="Ebene_1" xmlns="http://www.w3.org/2000/svg" xmlns:xlink="http://www.w3.org/1999/xlink" x="0px" y="0px"
	 width="100px" height="100px" viewBox="0 0 100 100" enable-background="new 0 0 100 100" xml:space="preserve">
<circle fill="#B2B2B2" cx="50" cy="50" r="50"/>
<image display="none" overflow="visible" opacity="0.13" enable-background="new    " width="730" height="555" xlink:href="下書き/教育費.png"  transform="matrix(0.1234 0 0 0.1234 7.3164 18.4473)">
</image>
<path id="right-mimi" fill="none" stroke="#000000" stroke-width="1.5" stroke-linecap="round" stroke-linejoin="round" d="
	M22.913,35.727C14.35,39.603,2.511,46.533,3.666,47.833c1.155,1.299,11.193,3.318,12.382,2.164"/>
<path id="left-mimi" fill="none" stroke="#000000" stroke-width="1.5" stroke-linecap="round" stroke-linejoin="round" d="
	M74.725,33.612c8.865,3.124,21.256,9.011,20.217,10.404c-1.04,1.394-10.865,4.271-12.151,3.223"/>
<ellipse id="body" fill="none" stroke="#000000" stroke-width="1.5" stroke-linecap="round" stroke-linejoin="round" cx="49.734" cy="53.476" rx="33.686" ry="29.339"/>
<path id="pen-body" stroke="#000000" stroke-linecap="round" d="M56.723,69.682c-3.681,1.829-27.213,17.13-29.716,16.071
	c-6.885-2.91-7.122-9.816-7.122-9.816L54.722,55.82v2.02l3.949,0.964l-0.673,3.08l3.273-0.192l-1.059,3.85"/>
<polyline id="pen-sin" stroke="#000000" stroke-width="0.25" points="69.667,55.82 62.137,55.338 66.798,62.575 "/>
<polyline id="pen-rinkaku" fill="none" stroke="#000000" points="55.322,55.338 69.667,55.82 65.873,64.753 "/>
<path id="right-arm1" fill="none" stroke="#000000" stroke-width="1.5" stroke-linecap="round" stroke-linejoin="round" d="
	M30.76,59.284c0,0,8.76,0.964,11.743,4.717"/>
<path id="right-arm2" fill="none" stroke="#000000" stroke-width="1.5" stroke-linecap="round" stroke-linejoin="round" d="
	M30.375,66.792c0,0,2.31,0.675,7.219-1.059c4.909-1.732,4.909-1.732,4.909-1.732"/>
<path id="left-arm" fill="none" stroke="#000000" stroke-width="1.5" stroke-linecap="round" stroke-linejoin="round" d="
	M68.705,64.001c-7.795,1.926-13.571,4.523-13.379,5.006c0.192,0.481,11.454,2.983,14.341,2.02"/>
<path id="right-leg" fill="none" stroke="#000000" stroke-width="1.5" stroke-linecap="round" stroke-linejoin="round" d="
	M34.943,79.841c0.823,6.201,0.823,5.894,1.496,7.262c0.674,1.366,7.474-3.841,6.962-4.809"/>
<path id="left-leg" fill="none" stroke="#000000" stroke-width="1.5" stroke-linecap="round" stroke-linejoin="round" d="
	M57.151,82.099c1.136,3.078,2.677,6.061,3.734,5.677c1.059-0.386,6.727-8.673,6.204-9.148"/>
<polyline id="tax-mark" stroke="#000000" stroke-width="0.25" points="59.506,12.191 81.859,20.405 77.657,29.575 69.667,26.519 
	65.902,33.612 58.552,31.868 61.271,22.901 55.322,21.743 "/>
<ellipse id="left-eye" stroke="#000000" stroke-width="0.25" cx="56.7" cy="43.124" rx="1.524" ry="3.77"/>
<ellipse id="right-eye" stroke="#000000" stroke-width="0.25" cx="40.962" cy="42.856" rx="1.777" ry="4.038"/>
<path id="mouth" fill="none" stroke="#000000" stroke-width="0.75" stroke-linecap="round" stroke-linejoin="round" d="
	M52.539,47.464c0,3.123-1.479,3.917-2.875,3.943c-2.187,0.041-2.597-1.591-2.735-3.943"/>
<line fill="none" stroke="#000000" stroke-width="0.75" stroke-linecap="round" stroke-linejoin="round" x1="65.902" y1="44.96" x2="69.667" y2="48.827"/>
<line fill="none" stroke="#000000" stroke-width="0.75" stroke-linecap="round" stroke-linejoin="round" x1="69.667" y1="44.96" x2="64.352" y2="48.827"/>
<line fill="none" stroke="#000000" stroke-width="0.75" stroke-linecap="round" stroke-linejoin="round" x1="30.375" y1="43.982" x2="34.899" y2="46.894"/>
<line fill="none" stroke="#000000" stroke-width="0.75" stroke-linecap="round" stroke-linejoin="round" x1="34.034" y1="43.124" x2="30.76" y2="47.464"/>
</svg>
