<?xml version="1.0" encoding="utf-8"?>
<!-- Generator: Adobe Illustrator 14.0.0, SVG Export Plug-In . SVG Version: 6.00 Build 43363)  -->
<!DOCTYPE svg PUBLIC "-//W3C//DTD SVG 1.1//EN" "http://www.w3.org/Graphics/SVG/1.1/DTD/svg11.dtd">
<svg version="1.1" id="Ebene_1" xmlns="http://www.w3.org/2000/svg" xmlns:xlink="http://www.w3.org/1999/xlink" x="0px" y="0px"
	 width="100px" height="100px" viewBox="0 0 100 100" enable-background="new 0 0 100 100" xml:space="preserve">
<circle fill="#B2B2B2" cx="50" cy="50" r="50"/>
<image display="none" overflow="visible" opacity="0.13" enable-background="new    " width="730" height="555" xlink:href="../下書き/教育費.png"  transform="matrix(0.1234 0 0 0.1234 7.3164 18.4473)">
</image>
<image display="none" overflow="visible" opacity="0.19" width="924" height="825" xlink:href="../下書き/農林水産業.png"  transform="matrix(0.1128 0 0 0.1128 -0.2339 1.4702)">
</image>
<path id="right-mimi" display="none" fill="none" stroke="#000000" stroke-width="1.5" stroke-linecap="round" stroke-linejoin="round" d="
	M20.428,33.581c-4.641,2.101-9.489,5.099-12.992,7.719c-3.419,2.557-5.558,4.755-4.976,5.41c1.178,1.325,9.343,3.389,10.617,2.153"
	/>
<path id="right-mimi_1_" fill="none" stroke="#000000" stroke-width="1.5" stroke-linecap="round" stroke-linejoin="round" d="
	M9.178,43.851C5.93,46.28,4.292,48.06,4.844,48.682c1.12,1.259,8.876,3.22,10.086,2.045"/>
<path id="left-mimi" fill="none" stroke="#000000" stroke-width="1.5" stroke-linecap="round" stroke-linejoin="round" d="
	M74.631,34.058c9.02,3.178,21.625,9.167,20.568,10.585c-1.057,1.418-11.055,4.346-12.363,3.279"/>
<ellipse id="body" display="none" fill="none" stroke="#000000" stroke-width="1.5" stroke-linecap="round" stroke-linejoin="round" cx="49.153" cy="52.589" rx="36.077" ry="31.422"/>
<path id="body_1_" fill="none" stroke="#000000" stroke-width="1.5" stroke-linecap="round" stroke-linejoin="round" d="
	M42.027,37.128c11.895-3.79,23.03-9.333,23.176-9.266c10.869,5.005,18.273,14.952,18.273,26.405c0,16.484-15.342,29.85-34.272,29.85
	c-18.93,0-34.274-13.365-34.274-29.85c0-3.958,0.884-7.735,2.49-11.19C17.478,42.953,30.132,40.917,42.027,37.128z"/>
<path id="pen-body" display="none" stroke="#000000" stroke-linecap="round" d="M56.638,69.946
	c-3.941,1.959-29.145,18.346-31.825,17.211c-7.375-3.117-7.628-10.512-7.628-10.512l37.311-21.545v2.162l4.229,1.033l-0.72,3.299
	l3.505-0.207l-1.134,4.123"/>
<polyline id="pen-sin" display="none" stroke="#000000" stroke-width="0.25" points="70.502,55.101 62.437,54.583 67.429,62.335 "/>
<polyline id="pen-rinkaku" display="none" fill="none" stroke="#000000" points="66.438,64.667 70.502,55.101 55.139,54.583 "/>
<path id="right-arm1" display="none" fill="none" stroke="#000000" stroke-width="1.5" stroke-linecap="round" stroke-linejoin="round" d="
	M28.833,58.81c0,0,9.382,1.033,12.577,5.053"/>
<path id="right-arm2" display="none" fill="none" stroke="#000000" stroke-width="1.5" stroke-linecap="round" stroke-linejoin="round" d="
	M28.42,66.851c0,0,2.474,0.723,7.731-1.133c5.258-1.855,5.258-1.855,5.258-1.855"/>
<path id="left-arm" display="none" fill="none" stroke="#000000" stroke-width="1.5" stroke-linecap="round" stroke-linejoin="round" d="
	M67.455,58.81c-8.349,2.063-14.535,4.844-14.329,5.361c0.206,0.516,12.268,3.195,15.359,2.162"/>
<path id="right-leg" fill="none" stroke="#000000" stroke-width="1.5" stroke-linecap="round" stroke-linejoin="round" d="
	M34.154,81.094c0.837,6.309,0.837,5.994,1.522,7.389c0.686,1.387,7.604-3.908,7.083-4.895"/>
<path id="left-leg" fill="none" stroke="#000000" stroke-width="1.5" stroke-linecap="round" stroke-linejoin="round" d="
	M56.75,83.389c1.156,3.133,2.723,6.168,3.799,5.777c1.078-0.393,6.846-8.824,6.313-9.309"/>
<polyline id="tax-mark" display="none" stroke="#000000" stroke-width="0.25" points="112.748,5.962 136.688,14.76 132.188,24.581 
	123.631,21.307 119.599,28.904 111.726,27.037 114.639,17.433 108.268,16.192 "/>
<polyline id="tax-mark_1_" stroke="#000000" stroke-width="0.25" points="37.32,12.676 53.098,7.115 53.953,13.319 48.27,15.249 
	48.637,20.267 43.79,22.557 42.155,17.081 38.323,19.056 "/>
<ellipse id="left-eye" stroke="#000000" stroke-width="0.25" cx="56.291" cy="43.736" rx="1.551" ry="3.835"/>
<ellipse id="right-eye" stroke="#000000" stroke-width="0.25" cx="40.279" cy="43.463" rx="1.808" ry="4.108"/>
<path id="mouth" fill="none" stroke="#000000" stroke-width="0.75" stroke-linecap="round" stroke-linejoin="round" d="
	M52.057,48.151c0,3.177-1.504,3.985-2.924,4.011c-2.226,0.043-2.643-1.617-2.783-4.011"/>
<line fill="none" stroke="#000000" stroke-width="0.75" stroke-linecap="round" stroke-linejoin="round" x1="65.654" y1="45.604" x2="69.484" y2="49.538"/>
<line fill="none" stroke="#000000" stroke-width="0.75" stroke-linecap="round" stroke-linejoin="round" x1="69.484" y1="45.604" x2="64.076" y2="49.538"/>
<line fill="none" stroke="#000000" stroke-width="0.75" stroke-linecap="round" stroke-linejoin="round" x1="27.723" y1="46.67" x2="32.326" y2="49.633"/>
<line fill="none" stroke="#000000" stroke-width="0.75" stroke-linecap="round" stroke-linejoin="round" x1="31.812" y1="45.058" x2="28.237" y2="51.244"/>
<path id="tail" fill="none" stroke="#000000" stroke-width="1.5" stroke-linecap="round" stroke-linejoin="round" d="M64.99,84.738
	c4.973,0.951,10.43-0.465,13.482-3.645c3.051-3.184,3.873-7.934,1.531-12.432"/>
<path id="hat" fill="none" stroke="#000000" stroke-linecap="round" stroke-linejoin="round" d="M74.631,22.191
	c0,0-12.713,7.519-20.533,10.226c-7.819,2.707-15.338,5.751-26.165,8.214c-6.767,1.539-14.121,2.601-18.355,2.919
	c-2.54,0.19-3.957,0.114-3.449-0.288c1.354-1.071,13.685-7.527,13.685-7.527s-0.751-10.236,6.617-16.251
	c7.368-6.015,17.497-7.819,25.364,0c7.869,7.819,4.498,5.564,5.764,5.714S74.631,22.191,74.631,22.191z"/>
<path id="hat2" stroke="#000000" stroke-width="0.5" d="M20.284,30.221c6.436-1.85,11.702-3.774,15.86-4.97
	c17.043-4.9,16.95-4.464,16.95-4.464s3.252,3.428,3.502,3.729c0.131,0.155-9.504,3.708-18.995,6.422
	c-8.961,2.563-17.807,4.302-17.807,4.302L20.284,30.221z"/>
<path fill="none" stroke="#000000" stroke-width="1.5" stroke-linecap="round" stroke-linejoin="round" d="M58.559,60.713
	c0,0-5.582,1.9-5.701,2.613s2.494,3.918,6.412,2.613"/>
<path fill="none" stroke="#000000" stroke-width="1.5" stroke-linecap="round" stroke-linejoin="round" d="M32.552,64.395
	c0,0,5.815-1.424,7.776,0c1.961,1.426-6.174,4.869-6.174,4.869"/>
<path fill="none" stroke="#000000" stroke-width="0.75" stroke-linecap="round" stroke-linejoin="round" d="M37.595,68.393
	c0.934,1.229,1.917,2.422,3.318,3.135c1.354,0.688,2.889,0.881,4.39,0.898c2.513,0.029,5.685-0.039,7.722-1.713
	c1.303-1.068,1.9-2.66,2.451-4.199"/>
<path fill="none" stroke="#000000" stroke-width="0.75" stroke-linecap="round" stroke-linejoin="round" d="M45.076,56.998
	c1.638-0.785,3.361-1.531,5.22-1.258c1.797,0.266,3.262,1.426,4.104,3.01c0.482,0.908,0.762,1.902,1.037,2.887"/>
<path fill="none" stroke="#000000" stroke-width="0.75" stroke-linecap="round" stroke-linejoin="round" d="M45.316,57.037
	c-1.013,0.004-2.026-0.098-3.039-0.025c-1.437,0.102-2.861,0.514-3.766,1.709c-0.965,1.275-1.477,3.047-1.477,4.637"/>
<path stroke="#000000" stroke-width="0.75" stroke-linecap="round" stroke-linejoin="round" d="M45.1,56.986
	c0,0,0-2.486-1.108-3.912c-1.108-1.425-5.066,0.316-4.196,0.633C40.666,54.025,45.896,56.93,45.1,56.986z"/>
</svg>
