<?xml version="1.0" encoding="utf-8"?>
<!-- Generator: Adobe Illustrator 14.0.0, SVG Export Plug-In . SVG Version: 6.00 Build 43363)  -->
<!DOCTYPE svg PUBLIC "-//W3C//DTD SVG 1.1//EN" "http://www.w3.org/Graphics/SVG/1.1/DTD/svg11.dtd">
<svg version="1.1" id="Ebene_1" xmlns="http://www.w3.org/2000/svg" xmlns:xlink="http://www.w3.org/1999/xlink" x="0px" y="0px"
	 width="100px" height="100px" viewBox="0 0 100 100" enable-background="new 0 0 100 100" xml:space="preserve">
<circle fill="#B2B2B2" cx="50" cy="50" r="50"/>
<path fill="none" stroke="#000000" d="M93.835,49.981c0,23.837-19.48,43.161-43.511,43.161S6.813,73.818,6.813,49.981
	s19.48-43.16,43.511-43.16S93.835,26.145,93.835,49.981z M49.809,10.108c-22.595,0-40.912,17.697-40.912,39.529
	c0,21.831,18.317,39.527,40.912,39.527s40.912-17.696,40.912-39.527C90.721,27.805,72.404,10.108,49.809,10.108z M50.069,13.049
	c-21.115,0-38.231,16.342-38.231,36.5c0,20.16,17.116,36.501,38.231,36.501c21.114,0,38.23-16.342,38.23-36.501
	C88.299,29.391,71.183,13.049,50.069,13.049z M50.242,17.201c-19.395,0-35.117,14.832-35.117,33.127s15.722,33.127,35.117,33.127
	s35.117-14.831,35.117-33.127S69.637,17.201,50.242,17.201z M50.415,21.179c-17.198,0-31.139,13.089-31.139,29.234
	c0,16.147,13.941,29.236,31.139,29.236c17.195,0,31.138-13.089,31.138-29.236C81.553,34.268,67.61,21.179,50.415,21.179z
	 M50.415,25.504c-14.905,0-26.987,11.656-26.987,26.035S35.51,77.574,50.415,77.574S77.4,65.918,77.4,51.539
	S65.319,25.504,50.415,25.504z M50.673,31.213c-12.372,0-22.401,9.029-22.401,20.166c0,11.139,10.03,20.167,22.401,20.167
	c12.373,0,22.403-9.028,22.403-20.167C73.076,40.242,63.046,31.213,50.673,31.213z"/>
</svg>
