<?xml version="1.0" encoding="utf-8"?>
<!-- Generator: Adobe Illustrator 14.0.0, SVG Export Plug-In . SVG Version: 6.00 Build 43363)  -->
<!DOCTYPE svg PUBLIC "-//W3C//DTD SVG 1.1//EN" "http://www.w3.org/Graphics/SVG/1.1/DTD/svg11.dtd">
<svg version="1.1" id="Ebene_1" xmlns="http://www.w3.org/2000/svg" xmlns:xlink="http://www.w3.org/1999/xlink" x="0px" y="0px"
	 width="100px" height="100px" viewBox="0 0 100 100" enable-background="new 0 0 100 100" xml:space="preserve">
<circle fill="#B2B2B2" cx="50" cy="50" r="50"/>
<path display="none" d="M-21.982,8.472c-1.986-1.031-4.203-1.536-4.312-1.62c-1.886-1.475-3.166-1.483-3.315-1.486
	C-31.635,5.322-40.68,6.5-40.68,6.5s-0.389-0.422-0.453-0.416c-0.061,0.006-0.229-0.01-0.186,0.059
	c0.049,0.07,0.163,0.411,0.018,0.432c-10.365,1.453-15.666,3.239-15.772,3.251c-6.524,0.743-7.435,1.08-7.684,1.015
	c-0.401-0.103-9.175-2.324-9.314-2.343c-0.139-0.021-0.911,0.064-0.996-0.008c-0.16-0.135-3.795-1.771-3.974-1.755
	c-0.105,0.011-1.664,0.046-1.508,0.175c0.718,0.592,1.944,2.262,2.32,2.209c0.376-0.055,2.12,0.764,2.12,0.764l0.595,0.055
	c0,0-0.556,0.154-0.26,0.171c0.299,0.015,3.681,1.676,3.661,1.677c-0.15,0.009-10.849,1.394-10.849,1.394s-0.109-0.304-0.279-0.289
	c-0.168,0.017-0.141,0.332-0.141,0.332s-0.567,0.038-0.946,0.083c-0.795,0.092-3.273-0.178-3.748-0.518
	c-0.348-0.25-14.17-8.719-14.529-8.959c-0.285-0.192-3.372,0.274-4.938,0.496c1.253,1.977,6.039,10.324,6.039,10.324
	c-1.467-0.081-3.267,0.149-3.414,0.162c-0.284,0.024,0.017,0.19,0.017,0.19s1.961,1.152,1.893,1.188
	c-0.172,0.09-0.21,0.639-0.21,0.639l-0.14,0.012l0.07,0.813l0.169-0.019c0.069,0.49,0.907,0.927,1.527,0.961
	c0.18,0.009,3.068,0.223,3.757,0.269c0.427,0.027,9.799,0.733,9.799,0.733l-0.103,0.238c0.341,0.08,0.478-0.188,0.478-0.188
	c0.52,0.006,6.977,0.523,8.963,0.617c1.769,0.08,5.586-0.217,5.586-0.217l-0.029,0.268c0.241-0.021,0.409-0.303,0.409-0.303
	l2.744-0.297l0.023,0.488c0.134-0.022,0.408-0.524,0.408-0.524c0.081-0.017,0.576-0.052,0.576-0.052l0.04,0.453
	c0,0,0.352-0.063,0.509-0.002c0.15,0.061,2.777,0.307,2.777,0.307v0.146l-0.198,0.125l2.974-0.221l0.051,0.216l0.195-0.038
	l0.008,0.201c-0.627,0.678-0.669,0.82-0.643,0.998c0.074,0.46,0.275,0.568,0.514,0.65c0.186,0.07,0.271,0.056,0.438,0.024
	c0.383-0.063,0.746-0.646,0.746-0.646s0.176-0.1,0.213-0.02c0.09,0.202,0.241,0.194,0.432,0.225c0.13,0.022,0.279,0.004,0.427-0.066
	c0.159-0.076,0.96-0.857,0.926-1.254c-0.055-0.633-0.644-0.622-0.651-0.695c-0.021-0.221,0.734-0.773,0.734-0.773v-0.475l0.523-0.07
	l0.072,0.818c-0.203,0.029-0.439,1.141-0.428,1.287c0.014,0.145,0.047,0.747,0.047,0.747c-0.111,0.054-0.343,0.229-0.311,0.578
	c0.064,0.731,0.611,0.726,0.771,0.712c0.473-0.029,0.827-0.55,0.803-0.833c-0.014-0.155-0.051-0.381,0.023-0.338
	c0.18,0.099,0.319,0.046,0.52,0.028c0.275-0.025,0.683-0.56,0.66-0.812c-0.01-0.104-0.021-0.317-0.09-0.416
	c-0.173-0.237,0.062-0.302,0.291-0.321c0.406-0.037,0.609-0.636,0.717-0.613c0.108,0.023,1.797,0,1.797,0l0.052,0.303l-0.241,0.045
	l0.023,0.165c0,0,2.101-0.202,2.289-0.222c2.623-0.264,2.645-0.604,2.645-0.604l-0.025-1.782c0.301-0.029,5.107-0.938,5.107-0.938
	l-0.043,0.458c0.378-0.032,0.46-0.563,0.529-0.574c1.072-0.211,6.541-0.916,6.848-0.941c2.186-0.192,7.071-1.353,7.071-1.353
	l0.094,0.658l-0.424,0.481l0.028,0.207l0.526-0.021c0,0,0.236,0.761,0.154,0.777c-0.085,0.02-0.741,0.244-0.683,0.929
	c0.053,0.575,0.752,0.608,0.856,0.603c0.587-0.055,0.854-0.636,0.835-0.875c-0.027-0.316-0.322-0.423-0.283-0.561
	c0.104-0.379-0.303-1.141-0.303-1.141l0.148-0.104l-0.057-0.517l0.59-0.285l-0.074-0.555c4.621-1.475,6.174-2.82,6.513-3.111
	c0.579-0.496,0.853-0.773,0.813-1.214C-21.143,8.917-21.816,8.56-21.982,8.472z"/>
<path d="M54.5,39.489c7.813,3.438,20.703,2.969,23.047,3.232c1.406,0.158-0.984,0.58-10.547,2.268c-25.5,4.5-12.5-15.5-25.5,4.5
	c-8.125,12.5-4.141,25.779-4.404,28.613c-0.158,1.699-1.845-0.361-8.596-8.613c-18-22,34-36,20-43.5s20.336-8,29.418,14.5
	C87,62.988,72,9.989,85,40.989"/>
</svg>
